<svg xmlns="http://www.w3.org/2000/svg" xmlns:xlink="http://www.w3.org/1999/xlink" width="555.854" height="561.026" viewBox="0 0 555.854 561.026">
  <defs>
    <clipPath id="clip-path">
      <rect y="27" width="212" height="386" fill="none"/>
    </clipPath>
  </defs>
  <g id="Group_1" data-name="Group 1" transform="translate(-126.393 -35.974)">
    <g id="Ellipse_1" data-name="Ellipse 1" transform="translate(341 49)" fill="#fff" stroke="#afa8b9" stroke-width="3">
      <ellipse cx="69.87" cy="274" rx="69.87" ry="274" stroke="none"/>
      <ellipse cx="69.87" cy="274" rx="68.37" ry="272.5" fill="none"/>
    </g>
    <g id="Path_2" data-name="Path 2" transform="translate(595.007 52.84) rotate(45)" fill="#fff">
      <path d="M 31.17868614196777 641.1097412109375 C 29.09243583679199 641.1097412109375 27.00960159301758 640.5882568359375 24.98810195922852 639.5596923828125 C 22.93951988220215 638.5172729492188 20.89735221862793 636.9285278320312 18.91827011108398 634.8375854492188 C 15.50385284423828 631.2299194335938 12.20293617248535 626.0595703125 9.107352256774902 619.4702758789062 C 6.029185771942139 612.9178466796875 3.119935989379883 604.8868408203125 0.4603525400161743 595.6004028320312 C -4.859647274017334 577.0243530273438 -9.183647155761719 553.602783203125 -12.39156436920166 525.9862670898438 C -15.63114738464355 498.0967712402344 -17.62956428527832 466.7948303222656 -18.33131408691406 432.9500122070312 C -19.05781364440918 397.915771484375 -18.37189674377441 361.0025939941406 -16.2927303314209 323.23583984375 C -13.89339733123779 279.6535949707031 -9.781814575195312 237.2784271240234 -4.072147369384766 197.2873382568359 C -1.328480839729309 178.0708465576172 1.779435873031616 159.5121765136719 5.165519237518311 142.1269226074219 C 8.518102645874023 124.9131774902344 12.17210292816162 108.7004241943359 16.02610206604004 93.93917846679688 C 19.87685203552246 79.19026184082031 23.95818519592285 65.77159118652344 28.15668678283691 54.05592727661133 C 32.3858528137207 42.25492477416992 36.76826858520508 32.08575820922852 41.18235397338867 23.83100891113281 C 45.64126968383789 15.49225902557373 50.1646842956543 9.044425964355469 54.62685394287109 4.666676044464111 C 59.04918670654297 0.3279259502887726 63.42560195922852 -1.989490747451782 67.63426971435547 -2.221157312393188 C 67.87035369873047 -2.23415732383728 68.10910034179688 -2.240740776062012 68.34401702880859 -2.240740776062012 C 70.43026733398438 -2.240740776062012 72.51309967041016 -1.719240665435791 74.53459930419922 -0.690657377243042 C 76.58318328857422 0.351759284734726 78.62535095214844 1.94050931930542 80.60443878173828 4.031425952911377 C 84.01885223388672 7.639092445373535 87.31977081298828 12.80942630767822 90.41526794433594 19.39875984191895 C 93.49352264404297 25.95117568969727 96.40277099609375 33.982177734375 99.06235504150391 43.26859283447266 C 104.3823547363281 61.84476089477539 108.7063522338867 85.26634216308594 111.9142684936523 112.8827590942383 C 115.1538543701172 140.7722625732422 117.1522674560547 172.0741729736328 117.8540191650391 205.9190063476562 C 118.5805206298828 240.9532623291016 117.8945999145508 277.8664245605469 115.8154373168945 315.6331787109375 C 113.4160995483398 359.2154235839844 109.3045196533203 401.5906677246094 103.594856262207 441.5817565917969 C 100.851188659668 460.7982482910156 97.74327087402344 479.3568420410156 94.35718536376953 496.7421875 C 91.00460052490234 513.9559326171875 87.35060119628906 530.168701171875 83.49660491943359 544.929931640625 C 79.64585113525391 559.6788330078125 75.56452178955078 573.097412109375 71.36602020263672 584.8131103515625 C 67.13685607910156 596.6141967773438 62.75443649291992 606.7833251953125 58.34035110473633 615.0380859375 C 53.88143539428711 623.3768310546875 49.3580207824707 629.8246459960938 44.89585113525391 634.2024536132812 C 40.47351837158203 638.5410766601562 36.09710311889648 640.8585205078125 31.88843536376953 641.0901489257812 C 31.65235328674316 641.1031494140625 31.41360282897949 641.1097412109375 31.17868614196777 641.1097412109375 Z" stroke="none"/>
      <path d="M 68.34400939941406 -0.74072265625 C 68.13568115234375 -0.74072265625 67.92484283447266 -0.73492431640625 67.71675872802734 -0.723388671875 C 59.82801055908203 -0.2891845703125 51.11001205444336 8.4461669921875 42.50509643554688 24.53826904296875 C 38.12559509277344 32.72845458984375 33.77317810058594 42.829833984375 29.56876373291016 54.56195068359375 C 25.38517761230469 66.23602294921875 21.31709289550781 79.6119384765625 17.47742462158203 94.318115234375 C 13.63143157958984 109.0490112304688 9.984428405761719 125.2306518554688 6.637847900390625 142.4136657714844 C 3.256591796875 159.7742614746094 0.1528472900390625 178.3077697753906 -2.587158203125 197.4993286132812 C -8.290740966796875 237.4476013183594 -12.3980712890625 279.7792663574219 -14.79499053955078 323.3183288574219 C -16.8720703125 361.0474243164062 -17.55731964111328 397.92236328125 -16.83165740966797 432.9189453125 C -16.13090515136719 466.7164916992188 -14.13565826416016 497.9706726074219 -10.90157318115234 525.8131713867188 C -7.703071594238281 553.3487548828125 -3.395240783691406 576.6895751953125 1.902427673339844 595.1874389648438 C 4.539924621582031 604.3970336914062 7.420845031738281 612.3523559570312 10.46509552001953 618.8323974609375 C 13.49259185791016 625.2770385742188 16.70317840576172 630.3150024414062 20.00775909423828 633.806396484375 C 21.86851501464844 635.7725219726562 23.77301025390625 637.2583618164062 25.66834259033203 638.2227783203125 C 27.50259399414062 639.1560668945312 29.30509185791016 639.6097412109375 31.17868041992188 639.6097412109375 C 31.38700866699219 639.6097412109375 31.59784698486328 639.6039428710938 31.80593109130859 639.5924072265625 C 39.69467926025391 639.158203125 48.41267776489258 630.4227294921875 57.01759338378906 614.3307495117188 C 61.3970947265625 606.140625 65.74951171875 596.0391845703125 69.95392608642578 584.3070068359375 C 74.13751220703125 572.6329956054688 78.20559692382812 559.257080078125 82.04525756835938 544.5509033203125 C 85.89125823974609 529.8200073242188 89.53826141357422 513.6383666992188 92.88484191894531 496.455322265625 C 96.26609802246094 479.0947570800781 99.36984252929688 460.561279296875 102.1098480224609 441.3697509765625 C 107.8134307861328 401.4214477539062 111.9207611083984 359.0897521972656 114.3176803588867 315.5506896972656 C 116.3947601318359 277.8215942382812 117.0800094604492 240.9466857910156 116.3543472290039 205.9501037597656 C 115.6535949707031 172.1524963378906 113.6583480834961 140.8983459472656 110.4242630004883 113.0558471679688 C 107.2257614135742 85.520263671875 102.9179306030273 62.179443359375 97.62026214599609 43.68157958984375 C 94.98275756835938 34.47198486328125 92.10184478759766 26.51666259765625 89.05759429931641 20.03662109375 C 86.03009796142578 13.59197998046875 82.81942749023438 8.55401611328125 79.51493072509766 5.0626220703125 C 77.6541748046875 3.09649658203125 75.74967956542969 1.61065673828125 73.85434722900391 0.646240234375 C 72.02001190185547 -0.28704833984375 70.21759033203125 -0.74072265625 68.34400939941406 -0.74072265625 M 68.34400939941406 -3.74078369140625 C 105.1755447387695 -3.74078369140625 127.0690307617188 138.5065307617188 117.3131790161133 315.7156066894531 C 107.4877624511719 494.1883544921875 69.27867889404297 640.5339965820312 31.97084808349609 642.5879516601562 C 31.70670318603516 642.6024780273438 31.44130706787109 642.6098022460938 31.17868041992188 642.6098022460938 C -5.652854919433594 642.6098022460938 -27.54634094238281 500.3625793457031 -17.79048919677734 323.1534118652344 C -7.965072631835938 144.6807556152344 30.24401092529297 -1.66510009765625 67.55184936523438 -3.71893310546875 C 67.81598663330078 -3.73345947265625 68.08138275146484 -3.74078369140625 68.34400939941406 -3.74078369140625 Z" stroke="none" fill="#afa8b9"/>
    </g>
    <g id="Path_1" data-name="Path 1" transform="translate(695.799 489.688) rotate(135)" fill="#fff">
      <path d="M 103.9249954223633 648.5477294921875 C 103.6867446899414 648.5477294921875 103.4545822143555 648.5413208007812 103.2152481079102 648.5281372070312 C 99.00658416748047 648.2965087890625 94.63016510009766 645.9790649414062 90.20783233642578 641.6403198242188 C 85.74566650390625 637.2625732421875 81.22224426269531 630.8147583007812 76.76332855224609 622.4760131835938 C 72.34925079345703 614.2212524414062 67.96682739257812 604.0520629882812 63.73766326904297 592.2509765625 C 59.53916549682617 580.5353393554688 55.45783233642578 567.1167602539062 51.60708236694336 552.3677978515625 C 47.75308227539062 537.6065063476562 44.09907913208008 521.393798828125 40.74649810791016 504.1799926757812 C 37.36041259765625 486.7947387695312 34.25249862670898 468.236083984375 31.50883102416992 449.0196533203125 C 25.79916381835938 409.0285034179688 21.68758010864258 366.6533203125 19.28824806213379 323.0710754394531 C 17.20916366577148 285.3063354492188 16.52358055114746 248.3939819335938 17.25033187866211 213.3593292236328 C 17.9524974822998 179.5148162841797 19.95133018493652 148.2125701904297 23.19133186340332 120.3220748901367 C 26.39958000183105 92.70498657226562 30.72391510009766 69.28273773193359 36.04416275024414 50.70590591430664 C 38.70383071899414 41.41915512084961 41.61316299438477 33.38798904418945 44.69132995605469 26.83540534973145 C 47.78691482543945 20.24590682983398 51.08774948120117 15.0755729675293 54.50208282470703 11.46807289123535 C 56.48074722290039 9.37748908996582 58.52249908447266 7.789072513580322 60.57066345214844 6.74690580368042 C 62.5916633605957 5.718489170074463 64.67399597167969 5.197072505950928 66.75966644287109 5.197072505950928 C 66.99791717529297 5.197072505950928 67.23007965087891 5.203489303588867 67.46941375732422 5.21665620803833 C 71.67807769775391 5.448322772979736 76.05449676513672 7.765739440917969 80.47682952880859 12.10448932647705 C 84.93899536132812 16.48223876953125 89.46241760253906 22.93007278442383 93.92133331298828 31.26882362365723 C 98.33541107177734 39.5235710144043 102.7178344726562 49.6927375793457 106.9469985961914 61.49374008178711 C 111.1455001831055 73.20940399169922 115.2268295288086 86.62807464599609 119.0775833129883 101.3769912719727 C 122.9315795898438 116.1382369995117 126.585578918457 132.3509826660156 129.9381713867188 149.5647430419922 C 133.3242492675781 166.9500732421875 136.4321594238281 185.5086517333984 139.1758270263672 204.7251586914062 C 144.885498046875 244.7162322998047 148.9970855712891 287.0914916992188 151.3964080810547 330.6737365722656 C 153.4754943847656 368.4384765625 154.1610870361328 405.350830078125 153.434326171875 440.3854064941406 C 152.7321624755859 474.22998046875 150.7333374023438 505.5322265625 147.4933319091797 533.4226684570312 C 144.2850799560547 561.039794921875 139.9607543945312 584.4620971679688 134.6405029296875 603.0388793945312 C 131.9808349609375 612.32568359375 129.0715026855469 620.3568115234375 125.9932479858398 626.909423828125 C 122.8977508544922 633.4989013671875 119.5969161987305 638.6692504882812 116.1825790405273 642.2767333984375 C 114.2039108276367 644.3673095703125 112.1621627807617 645.9557495117188 110.1139984130859 646.9979248046875 C 108.0929946899414 648.0263061523438 106.0106658935547 648.5477294921875 103.9249954223633 648.5477294921875 Z" stroke="none"/>
      <path d="M 66.75966644287109 6.69708251953125 C 64.88666534423828 6.69708251953125 63.08474731445312 7.150634765625 61.25091552734375 8.083740234375 C 59.3560791015625 9.04791259765625 57.45199584960938 10.53350830078125 55.59149932861328 12.4991455078125 C 52.28716278076172 15.990478515625 49.07658386230469 21.02850341796875 46.04899597167969 27.47314453125 C 43.00482940673828 33.95343017578125 40.12382507324219 41.90899658203125 37.48625183105469 51.118896484375 C 32.18841552734375 69.617431640625 27.88015747070312 92.958984375 24.68133544921875 120.4952392578125 C 21.44674682617188 148.3387451171875 19.451171875 179.5931701660156 18.75007629394531 213.3905029296875 C 18.02400207519531 248.3874206542969 18.70899963378906 285.261474609375 20.78599548339844 322.9885864257812 C 23.18290710449219 366.5276489257812 27.29025268554688 408.8593139648438 32.99383544921875 448.8075561523438 C 35.73382568359375 467.9991455078125 38.83758544921875 486.5326538085938 42.21882629394531 503.8932495117188 C 45.56541442871094 521.0762329101562 49.21241760253906 537.2579345703125 53.05841064453125 551.9888916015625 C 56.89807891845703 566.6950073242188 60.96616363525391 580.0709228515625 65.14974975585938 591.7449951171875 C 69.35416412353516 603.47705078125 73.70658111572266 613.5784912109375 78.08608245849609 621.7686767578125 C 86.69099426269531 637.8607177734375 95.40899658203125 646.5961303710938 103.2977447509766 647.0303955078125 C 103.509162902832 647.0420532226562 103.7143325805664 647.0477294921875 103.9249954223633 647.0477294921875 C 105.7979965209961 647.0477294921875 107.5999145507812 646.5941772460938 109.4337463378906 645.6610717773438 C 111.3285827636719 644.6968994140625 113.232666015625 643.2113037109375 115.0931625366211 641.2456665039062 C 118.3974990844727 637.7543334960938 121.6080780029297 632.71630859375 124.6355819702148 626.2716674804688 C 127.6798324584961 619.7913818359375 130.5608215332031 611.8358154296875 133.1984100341797 602.6259155273438 C 138.4962463378906 584.1273803710938 142.8045043945312 560.7858276367188 146.0033264160156 533.2495727539062 C 149.2379150390625 505.4060668945312 151.2334899902344 474.1515502929688 151.9345855712891 440.3543090820312 C 152.6606597900391 405.357421875 151.9756622314453 368.4832458496094 149.8986663818359 330.7562255859375 C 147.5017395019531 287.2171630859375 143.3944091796875 244.885498046875 137.6908264160156 204.9371643066406 C 134.9508361816406 185.7455749511719 131.8470764160156 167.212158203125 128.4658355712891 149.8515014648438 C 125.1192474365234 132.6685791015625 121.4722442626953 116.48681640625 117.6262512207031 101.7559204101562 C 113.7865753173828 87.04974365234375 109.7184982299805 73.67388916015625 105.534912109375 61.99981689453125 C 101.3304977416992 50.26776123046875 96.97808074951172 40.166259765625 92.59857940673828 31.97613525390625 C 83.99366760253906 15.88409423828125 75.27566528320312 7.148681640625 67.38691711425781 6.71441650390625 C 67.17549896240234 6.7027587890625 66.97032928466797 6.69708251953125 66.75966644287109 6.69708251953125 M 66.75966644287109 3.69708251953125 C 67.02454376220703 3.69708251953125 67.28540802001953 3.7042236328125 67.55183410644531 3.71893310546875 C 104.8596649169922 5.7728271484375 143.0687561035156 152.1185607910156 152.8941650390625 330.59130859375 C 162.6494140625 507.7894897460938 140.7523956298828 650.0477294921875 103.9249649047852 650.0477294921875 C 103.6600875854492 650.0477294921875 103.3992538452148 650.0405883789062 103.1328277587891 650.02587890625 C 65.82499694824219 647.9719848632812 27.61592102050781 501.6261596679688 17.79049682617188 323.1535034179688 C 8.035247802734375 145.9552307128906 29.93223571777344 3.69708251953125 66.75966644287109 3.69708251953125 Z" stroke="none" fill="#afa8b9"/>
    </g>
    <g id="Scroll_Group_1" data-name="Scroll Group 1" transform="translate(313 93)" clip-path="url(#clip-path)" style="isolation: isolate">
      <text id="_" data-name="?" transform="translate(0 395)" fill="#80b0e8" font-size="454" font-family="AppleMyungjo"><tspan x="0" y="0">?</tspan></text>
    </g>
  </g>
</svg>
